<svg width="379" height="84" viewBox="0 0 379 84" fill="none" xmlns="http://www.w3.org/2000/svg">
<path d="M102.703 20.3194C102.292 10.7889 94.4946 3.05061 84.9424 2.68394C74.3876 2.27913 65.7027 10.695 65.7027 21.1379C65.7027 21.8624 65.7468 22.5781 65.8292 23.2822C65.9967 24.7195 66.1026 26.1627 66.0408 27.6089C65.6969 35.529 62.4657 48.4124 45.8398 52.6776C45.5517 52.745 45.2694 52.8242 44.9931 52.9152C28.8846 57.8315 18.8296 45.1593 16.3394 41.5249C16.1601 41.2667 16.0042 40.9968 15.8455 40.724C14.302 38.1075 11.2296 36.497 7.8515 37.1189C4.88205 37.6645 2.48886 39.979 1.87145 42.927C0.842436 47.8287 4.56453 52.1466 9.298 52.1466C9.75371 52.1466 10.2006 52.1056 10.6328 52.0293C12.2028 51.7506 13.7786 51.5072 15.3721 51.4925C27.7115 51.3752 34.0502 57.8579 37.0491 62.0409C37.8135 63.1058 38.3662 64.2996 38.8043 65.5346C40.1596 69.348 43.8053 72.076 48.0889 72.076C53.3487 72.076 57.6411 67.9634 57.9234 62.789C57.9293 62.6921 57.9381 62.5953 57.9528 62.5015C58.6731 57.9019 62.8303 40.6419 84.8101 39.6094C84.8101 39.6094 84.7278 39.6094 84.5807 39.6006C94.9032 39.3982 103.156 30.7711 102.706 20.3224L102.703 20.3194Z" fill="url(#paint0_linear_8_72)"/>
<path d="M124.999 35.8612V46.6114H119.689V18.876H137.959V23.6534H124.999V31.3074H136.324V35.865H124.999V35.8612Z" fill="#323354"/>
<path d="M147.735 37.1452V46.6114H142.426V18.876H152.2C156.299 18.876 159.226 19.57 160.98 20.9543C162.735 22.3424 163.614 24.656 163.614 27.8988C163.614 30.2277 163.105 32.1094 162.087 33.5399C161.069 34.9705 159.527 35.9653 157.464 36.5244L164.455 46.6114H158.085L151.846 37.1452H147.731H147.735ZM158.216 27.8988C158.216 26.3641 157.765 25.2729 156.866 24.6251C155.968 23.9773 154.41 23.6534 152.2 23.6534H147.731V32.7225H152.2C154.414 32.7225 155.968 32.3523 156.866 31.6159C157.765 30.8794 158.216 29.6416 158.216 27.8988Z" fill="#323354"/>
<path d="M187.593 41.6103V46.6075H168.838V18.8721H187.196V23.6495H174.147V30.1968H185.561V34.7545H174.147V41.6103H187.597H187.593Z" fill="#323354"/>
<path d="M201.351 46.6114H192.459V18.876H201.351C204.181 18.876 206.429 19.1112 208.098 19.5816C209.764 20.052 211.098 20.8039 212.101 21.8373C213.103 22.8707 213.832 24.2627 214.291 26.0171C214.746 27.7715 214.977 30.0041 214.977 32.7186C214.977 37.5269 213.902 41.0435 211.75 43.2684C209.598 45.4971 206.132 46.6076 201.355 46.6076L201.351 46.6114ZM208.029 25.6855C207.47 24.949 206.687 24.4246 205.685 24.1161C204.682 23.8077 203.236 23.6534 201.351 23.6534H197.769V41.6142H201.351C204.536 41.6142 206.687 40.9664 207.809 39.667C208.931 38.3675 209.49 36.054 209.49 32.7225C209.49 30.9526 209.371 29.5105 209.136 28.3885C208.901 27.2664 208.53 26.368 208.029 25.6893V25.6855Z" fill="#323354"/>
<path d="M239.513 35.4291L233.363 33.9677C231.327 33.4973 229.897 32.7223 229.072 31.6465C228.247 30.5707 227.834 29.0284 227.834 27.0233C227.834 24.0157 228.659 21.8024 230.309 20.3873C231.96 18.9722 234.528 18.2627 238.006 18.2627C239.452 18.2627 240.74 18.3282 241.877 18.4632C243.011 18.5943 244.067 18.7948 245.039 19.0609V23.8383C243.358 23.5144 242.016 23.3023 241.013 23.1982C240.011 23.0941 238.978 23.044 237.917 23.044C236.147 23.044 234.894 23.3178 234.158 23.8615C233.421 24.409 233.051 25.3421 233.051 26.6685C233.051 27.4359 233.205 28.0181 233.514 28.4153C233.822 28.8124 234.347 29.1016 235.083 29.279L241.056 30.6941C242.44 31.018 243.473 31.3496 244.152 31.6889C244.831 32.0282 245.39 32.4485 245.833 32.9498C246.277 33.5089 246.608 34.203 246.828 35.0281C247.048 35.8533 247.16 36.8712 247.16 38.082C247.16 41.2091 246.335 43.4494 244.684 44.8067C243.034 46.164 240.466 46.8426 236.988 46.8426C235.187 46.8426 233.456 46.7231 231.79 46.4878C230.124 46.2526 228.817 45.9557 227.876 45.6048V40.6076C229.145 40.9932 230.583 41.294 232.191 41.5137C233.799 41.7335 235.399 41.8454 236.992 41.8454C238.731 41.8454 239.949 41.6024 240.639 41.1166C241.333 40.6307 241.681 39.6783 241.681 38.2632C241.681 37.3802 241.542 36.7363 241.26 36.3391C240.979 35.942 240.396 35.6374 239.513 35.433V35.4291Z" fill="#323354"/>
<path d="M276.141 32.5103C276.141 37.5538 275.146 41.2015 273.156 43.4572C271.166 45.7129 267.927 46.8426 263.447 46.8426C258.669 46.8426 255.353 45.79 253.495 43.6808C251.636 41.5716 250.707 37.8507 250.707 32.5103C250.707 27.4976 251.71 23.8692 253.715 21.6289C255.72 19.3887 258.962 18.2666 263.447 18.2666C268.194 18.2666 271.498 19.3231 273.357 21.4284C275.215 23.5376 276.144 27.2316 276.144 32.5103H276.141ZM257.162 39.4972C257.632 40.3532 258.326 40.9585 259.24 41.3094C260.154 41.6642 261.554 41.8416 263.443 41.8416C266.362 41.8416 268.309 41.1861 269.281 39.8712C270.253 38.5602 270.742 36.104 270.742 32.5064C270.742 30.7674 270.661 29.3369 270.499 28.2148C270.337 27.0928 270.064 26.1789 269.682 25.4733C269.211 24.5903 268.517 23.9618 267.604 23.5916C266.69 23.2214 265.302 23.0402 263.447 23.0402C260.497 23.0402 258.538 23.7034 257.563 25.0298C256.591 26.3563 256.101 28.851 256.101 32.5064C256.101 34.2454 256.19 35.676 256.367 36.798C256.545 37.9201 256.811 38.8185 257.162 39.4972Z" fill="#323354"/>
<path d="M283.396 46.4454H277.82L288.436 18.71H293.923L304.36 46.4454H298.785L296.795 40.785H285.339L283.392 46.4454H283.396ZM291.05 23.7959C290.726 24.918 290.364 26.0979 289.966 27.3356C289.569 28.5733 289.191 29.7262 288.837 30.7866L286.889 36.4047H295.249L293.302 30.7866C292.978 29.8419 292.608 28.7469 292.195 27.4898C291.783 26.2367 291.401 25.0066 291.046 23.7959H291.05Z" fill="#323354"/>
<path d="M313.388 36.9792V46.4454H308.078V18.71H317.853C321.952 18.71 324.878 19.404 326.633 20.7883C328.387 22.1764 329.266 24.4899 329.266 27.7328C329.266 30.0617 328.757 31.9434 327.739 33.3739C326.721 34.8045 325.179 35.7993 323.116 36.3584L330.103 46.4454H323.733L317.494 36.9792H313.38H313.388ZM323.872 27.7328C323.872 26.1981 323.421 25.1069 322.522 24.4591C321.624 23.8113 320.066 23.4874 317.857 23.4874H313.388V32.5565H317.857C320.07 32.5565 321.624 32.1863 322.522 31.4498C323.421 30.7134 323.872 29.4756 323.872 27.7328Z" fill="#323354"/>
<path d="M353.243 41.4443V46.4415H334.488V18.7061H352.846V23.4835H339.798V30.0308H351.211V34.5885H339.798V41.4443H353.247H353.243Z" fill="#323354"/>
<path d="M368.726 35.4291L362.576 33.9677C360.54 33.4973 359.11 32.7223 358.285 31.6465C357.459 30.5707 357.047 29.0284 357.047 27.0233C357.047 24.0157 357.872 21.8024 359.522 20.3873C361.173 18.9722 363.741 18.2627 367.219 18.2627C368.665 18.2627 369.953 18.3282 371.09 18.4632C372.224 18.5943 373.28 18.7948 374.252 19.0609V23.8383C372.571 23.5144 371.229 23.3023 370.226 23.1982C369.224 23.0941 368.19 23.044 367.13 23.044C365.36 23.044 364.107 23.3178 363.371 23.8615C362.634 24.409 362.264 25.3421 362.264 26.6685C362.264 27.4359 362.418 28.0181 362.727 28.4153C363.035 28.8124 363.559 29.1016 364.296 29.279L370.269 30.6941C371.653 31.018 372.686 31.3496 373.365 31.6889C374.044 32.0282 374.603 32.4485 375.046 32.9498C375.49 33.5089 375.821 34.203 376.041 35.0281C376.261 35.8533 376.373 36.8712 376.373 38.082C376.373 41.2091 375.547 43.4494 373.897 44.8067C372.247 46.164 369.679 46.8426 366.201 46.8426C364.4 46.8426 362.669 46.7231 361.003 46.4878C359.337 46.2526 358.03 45.9557 357.089 45.6048V40.6076C358.358 40.9932 359.796 41.294 361.4 41.5137C363.008 41.7335 364.608 41.8454 366.201 41.8454C367.94 41.8454 369.158 41.6024 369.848 41.1166C370.543 40.6307 370.89 39.6783 370.89 38.2632C370.89 37.3802 370.751 36.7363 370.469 36.3391C370.188 35.942 369.606 35.6374 368.723 35.433L368.726 35.4291Z" fill="#323354"/>
<path d="M119.689 60.5273H125.809V61.7574H121.155V65.5323H125.454V66.7469H121.155V71.8868H119.689V60.5273Z" fill="#323354"/>
<path d="M133.914 60.5273V71.8868H132.449V60.5273H133.914Z" fill="#323354"/>
<path d="M140.827 70.1015C141.487 70.5064 142.447 70.8418 143.457 70.8418C144.957 70.8418 145.832 70.0514 145.832 68.9023C145.832 67.8419 145.227 67.2327 143.692 66.6428C141.837 65.9834 140.692 65.0233 140.692 63.4231C140.692 61.6532 142.157 60.3384 144.367 60.3384C145.531 60.3384 146.372 60.6083 146.877 60.8936L146.472 62.0889C146.102 61.8884 145.342 61.5491 144.313 61.5491C142.763 61.5491 142.173 62.4745 142.173 63.2534C142.173 64.3138 142.863 64.8382 144.432 65.4436C146.353 66.1839 147.332 67.1132 147.332 68.7828C147.332 70.5372 146.033 72.0526 143.353 72.0526C142.258 72.0526 141.059 71.7325 140.453 71.3277L140.823 70.0976L140.827 70.1015Z" fill="#323354"/>
<path d="M155.356 60.5273V71.8868H153.891V60.5273H155.356Z" fill="#323354"/>
<path d="M172.175 66.0914C172.175 70.0013 169.8 72.0758 166.9 72.0758C164 72.0758 161.791 69.7507 161.791 66.3112C161.791 62.7021 164.031 60.3423 167.066 60.3423C170.1 60.3423 172.175 62.7175 172.175 66.0914ZM163.36 66.2765C163.36 68.7019 164.675 70.8766 166.985 70.8766C169.295 70.8766 170.625 68.7366 170.625 66.157C170.625 63.8974 169.445 61.5376 167 61.5376C164.556 61.5376 163.36 63.7779 163.36 66.2727V66.2765Z" fill="#323354"/>
<path d="M180.369 61.7766H176.914V60.5273H185.324V61.7766H181.85V71.8907H180.365V61.7766H180.369Z" fill="#323354"/>
<path d="M197.023 66.5618H192.608V70.6568H197.532V71.8868H191.143V60.5273H197.277V61.7574H192.608V65.3472H197.023V66.5618Z" fill="#323354"/>
<path d="M203.982 60.6815C204.723 60.5311 205.787 60.4463 206.797 60.4463C208.367 60.4463 209.377 60.7316 210.086 61.3717C210.661 61.8768 210.981 62.6519 210.981 63.531C210.981 65.0309 210.036 66.0258 208.841 66.4306V66.4808C209.716 66.7854 210.241 67.5951 210.51 68.775C210.881 70.3598 211.151 71.4549 211.386 71.8944H209.87C209.685 71.5744 209.431 70.595 209.111 69.1799C208.775 67.6106 208.166 67.0206 206.836 66.9705H205.455V71.8944H203.99V60.6854L203.982 60.6815ZM205.448 65.8561H206.948C208.517 65.8561 209.512 64.9962 209.512 63.6968C209.512 62.2316 208.451 61.5915 206.897 61.5722C206.188 61.5722 205.683 61.6378 205.448 61.7072V65.8523V65.8561Z" fill="#323354"/>
<path d="M219.521 68.3163L218.342 71.8907H216.826L220.686 60.5312H222.456L226.331 71.8907H224.762L223.547 68.3163H219.518H219.521ZM223.246 67.1711L222.132 63.9013C221.877 63.161 221.712 62.4862 221.542 61.8268H221.507C221.338 62.5016 221.152 63.1918 220.933 63.882L219.818 67.1711H223.242H223.246Z" fill="#323354"/>
<path d="M232.551 60.6622C233.26 60.5426 234.186 60.4424 235.366 60.4424C236.815 60.4424 237.876 60.7779 238.551 61.3871C239.175 61.9269 239.545 62.7521 239.545 63.7623C239.545 64.7725 239.241 65.5977 238.67 66.1877C237.895 67.0128 236.63 67.437 235.196 67.437C234.756 67.437 234.351 67.4216 234.016 67.3367V71.8867H232.551V60.6583V60.6622ZM234.016 66.1414C234.336 66.2262 234.741 66.2609 235.231 66.2609C237 66.2609 238.08 65.4011 238.08 63.8356C238.08 62.2701 237.02 61.6107 235.4 61.6107C234.76 61.6107 234.271 61.6609 234.02 61.7303V66.1453L234.016 66.1414Z" fill="#323354"/>
<path d="M251.951 66.5618H247.536V70.6568H252.456V71.8868H246.066V60.5273H252.201V61.7574H247.532V65.3472H251.947V66.5618H251.951Z" fill="#323354"/>
<path d="M260.379 60.5273V67.252C260.379 69.7969 261.509 70.8765 263.024 70.8765C264.709 70.8765 265.789 69.766 265.789 67.252V60.5273H267.273V67.1517C267.273 70.6413 265.434 72.0718 262.974 72.0718C260.649 72.0718 258.895 70.7416 258.895 67.2173V60.5234H260.379V60.5273Z" fill="#323354"/>
<path d="M276.525 61.7766H273.07V60.5273H281.48V61.7766H278.01V71.8907H276.525V61.7766Z" fill="#323354"/>
<path d="M287.869 68.3163L286.689 71.8907H285.174L289.034 60.5312H290.803L294.679 71.8907H293.109L291.895 68.3163H287.865H287.869ZM291.594 67.1711L290.48 63.9013C290.225 63.161 290.059 62.4862 289.89 61.8268H289.855C289.685 62.5016 289.5 63.1918 289.28 63.882L288.166 67.1711H291.59H291.594Z" fill="#323354"/>
<defs>
<linearGradient id="paint0_linear_8_72" x1="1.69211" y1="37.3741" x2="102.721" y2="37.3741" gradientUnits="userSpaceOnUse">
<stop offset="0.04" stop-color="#7F1E25"/>
<stop offset="0.21" stop-color="#821E25"/>
<stop offset="0.35" stop-color="#8C1E28"/>
<stop offset="0.49" stop-color="#9D1F2D"/>
<stop offset="0.55" stop-color="#A92030"/>
<stop offset="0.73" stop-color="#AA1F2F"/>
<stop offset="0.8" stop-color="#B11E2F"/>
<stop offset="0.85" stop-color="#BD1D2E"/>
<stop offset="0.92" stop-color="#BE1D2E"/>
<stop offset="0.95" stop-color="#C71E30"/>
</linearGradient>
</defs>
</svg>
