<svg width="179" height="179" viewBox="0 0 179 179" fill="none" xmlns="http://www.w3.org/2000/svg">
<path d="M21.2853 125.683C21.4201 125.935 21.4845 126.208 21.4787 126.501C21.4728 126.793 21.3979 127.065 21.2538 127.316C21.0959 127.562 20.8727 127.762 20.5843 127.916C20.305 128.065 20.0235 128.135 19.7398 128.124C19.4423 128.109 19.1704 128.023 18.9239 127.865C18.6774 127.707 18.4868 127.502 18.3521 127.249C18.2077 126.979 18.1408 126.702 18.1515 126.418C18.1573 126.126 18.2392 125.856 18.3971 125.61C18.5412 125.359 18.753 125.159 19.0323 125.01C19.3207 124.856 19.6136 124.786 19.9111 124.801C20.1947 124.812 20.4598 124.896 20.7063 125.054C20.9479 125.203 21.141 125.413 21.2853 125.683Z" fill="#323354"/>
<path d="M37.5132 143.051L27.832 145.906L26.9824 144.921L31.2143 135.752L32.1154 136.796L28.14 145.137L27.7967 144.739L36.6293 142.027L37.5132 143.051ZM34.6145 143.21L33.5873 143.628L30.2061 139.71L30.7528 138.735L34.6145 143.21Z" fill="#323354"/>
<path d="M47.718 151.189L41.984 158.377L41.142 157.705L41.0981 148.008L41.5396 148.36L36.8295 154.264L35.8027 153.445L41.5367 146.258L42.3787 146.93L42.4227 156.626L41.9811 156.274L46.6912 150.37L47.718 151.189Z" fill="#323354"/>
<path d="M56.8109 156.118C57.882 156.677 58.5639 157.424 58.8567 158.357C59.1495 159.291 58.9877 160.347 58.3714 161.527L55.9506 166.161L54.7864 165.552L57.1829 160.965C57.6573 160.057 57.8061 159.29 57.6292 158.664C57.4446 158.035 56.9875 157.529 56.2579 157.148C55.5206 156.763 54.8446 156.676 54.2298 156.888C53.6072 157.097 53.0587 157.655 52.5843 158.563L50.1879 163.15L49.0586 162.56L51.4794 157.926C52.0957 156.747 52.8707 156.01 53.8041 155.718C54.7298 155.421 55.7321 155.554 56.8109 156.118Z" fill="#323354"/>
<path d="M70.9468 161.672L68.1519 170.432L66.9006 170.032L69.3481 162.362L64.6055 160.848L64.9528 159.76L70.9468 161.672Z" fill="#323354"/>
<path d="M81.4774 163.21C82.1719 163.302 82.803 163.505 83.3708 163.819C83.9299 164.132 84.3988 164.525 84.7775 165C85.155 165.483 85.4278 166.023 85.5959 166.619C85.764 167.216 85.8036 167.848 85.7148 168.516C85.626 169.185 85.4226 169.785 85.1046 170.317C84.7866 170.849 84.3829 171.294 83.8935 171.653C83.403 172.021 82.847 172.283 82.2256 172.439C81.6042 172.595 80.942 172.626 80.2389 172.533C79.5444 172.44 78.922 172.238 78.3715 171.927C77.8112 171.623 77.3424 171.229 76.9648 170.746C76.5775 170.271 76.3041 169.735 76.1447 169.14C75.9766 168.543 75.9376 167.906 76.0275 167.229C76.1175 166.552 76.3214 165.948 76.6395 165.416C76.9488 164.883 77.3531 164.433 77.8523 164.066C78.3416 163.707 78.897 163.45 79.5184 163.294C80.13 163.146 80.783 163.118 81.4774 163.21ZM81.3235 164.369C80.82 164.302 80.3441 164.327 79.8957 164.444C79.4386 164.56 79.0331 164.753 78.679 165.024C78.3152 165.303 78.0182 165.643 77.7881 166.045C77.5493 166.447 77.3965 166.899 77.3296 167.402C77.2627 167.906 77.2921 168.382 77.4179 168.832C77.535 169.28 77.7334 169.682 78.013 170.037C78.2829 170.4 78.6233 170.697 79.0342 170.928C79.4365 171.158 79.8894 171.307 80.3928 171.374C80.905 171.442 81.3896 171.418 81.8467 171.302C82.2951 171.185 82.7012 170.987 83.065 170.708C83.4277 170.439 83.7285 170.103 83.9673 169.702C84.1974 169.3 84.3459 168.847 84.4128 168.343C84.4797 167.84 84.4546 167.364 84.3375 166.916C84.2117 166.466 84.0095 166.059 83.731 165.696C83.4514 165.34 83.1104 165.048 82.7081 164.818C82.2972 164.586 81.8356 164.437 81.3235 164.369Z" fill="#323354"/>
<path d="M94.1365 163.564C94.8361 163.528 95.4891 163.608 96.0956 163.805C96.6937 164.01 97.2223 164.312 97.6813 164.709C98.132 165.115 98.4946 165.596 98.7689 166.152C99.0432 166.707 99.1981 167.326 99.2334 168.009C99.2688 168.691 99.1788 169.322 98.9634 169.903C98.748 170.484 98.4326 170.996 98.0171 171.439C97.6021 171.89 97.1075 172.244 96.5334 172.502C95.951 172.769 95.31 172.921 94.6104 172.957C93.902 172.994 93.2442 172.905 92.6368 172.691C92.0212 172.486 91.4912 172.158 91.047 171.708L91.8568 170.837C92.2256 171.187 92.6332 171.437 93.0795 171.589C93.5263 171.75 93.9989 171.818 94.4974 171.792C95.0133 171.765 95.4898 171.653 95.9267 171.455C96.3549 171.257 96.7226 170.993 97.0298 170.661C97.337 170.33 97.5711 169.94 97.7321 169.494C97.8848 169.056 97.948 168.584 97.9217 168.077C97.8954 167.569 97.7835 167.102 97.5859 166.673C97.38 166.254 97.1072 165.896 96.7673 165.598C96.4274 165.3 96.0343 165.075 95.588 164.923C95.1329 164.771 94.6474 164.708 94.1315 164.735C93.633 164.761 93.1697 164.873 92.7415 165.07C92.3138 165.276 91.9348 165.577 91.6045 165.971L90.709 165.189C91.1043 164.695 91.5972 164.31 92.188 164.033C92.7699 163.758 93.4194 163.601 94.1365 163.564Z" fill="#323354"/>
<path d="M120.896 157L123.996 165.656L122.982 166.019L116.757 160.868L117.301 160.673L115.81 168.588L114.796 168.951L111.684 160.299L112.871 159.874L115.314 166.659L115.03 166.76L116.388 159.8L116.957 159.597L122.449 164.103L122.14 164.214L119.709 157.425L120.896 157Z" fill="#323354"/>
<path d="M131.812 150.767L136.542 158.652L130.977 161.99L130.39 161.01L134.827 158.347L131.273 152.423L126.678 155.18L126.09 154.2L131.812 150.767ZM132.902 154.908L133.476 155.865L129.421 158.297L128.847 157.34L132.902 154.908Z" fill="#323354"/>
<path d="M147.971 135.756L151.771 145.107L150.876 146.049L141.332 142.747L142.282 141.747L150.975 144.876L150.614 145.257L147.039 136.737L147.971 135.756ZM148.417 138.625L148.934 139.605L145.371 143.358L144.347 142.911L148.417 138.625Z" fill="#323354"/>
<path d="M152.365 129.279L159.027 133.8L160.798 131.192L161.743 131.834L157.472 138.127L156.527 137.485L158.297 134.876L151.635 130.355L152.365 129.279Z" fill="#323354"/>
<path d="M157.401 119.566C157.702 118.933 158.084 118.373 158.548 117.886C159.02 117.402 159.489 117.068 159.955 116.882L160.672 117.76C160.245 117.945 159.824 118.24 159.41 118.644C158.995 119.048 158.662 119.515 158.41 120.045C158.181 120.528 158.05 120.945 158.018 121.299C157.987 121.652 158.032 121.945 158.154 122.177C158.284 122.413 158.472 122.59 158.717 122.706C159.002 122.841 159.276 122.855 159.54 122.748C159.801 122.649 160.054 122.473 160.299 122.221C160.549 121.981 160.798 121.702 161.046 121.384C161.294 121.065 161.556 120.748 161.832 120.433C162.111 120.13 162.406 119.867 162.714 119.646C163.019 119.432 163.354 119.3 163.717 119.249C164.088 119.202 164.495 119.284 164.938 119.495C165.365 119.697 165.704 119.994 165.955 120.384C166.21 120.787 166.334 121.272 166.326 121.84C166.322 122.42 166.147 123.073 165.802 123.801C165.572 124.284 165.282 124.732 164.93 125.147C164.578 125.561 164.201 125.886 163.798 126.122L163.035 125.28C163.441 125.036 163.79 124.741 164.08 124.394C164.379 124.052 164.616 123.694 164.793 123.322C165.015 122.856 165.137 122.444 165.161 122.087C165.185 121.73 165.132 121.433 165.002 121.197C164.868 120.969 164.679 120.796 164.434 120.68C164.141 120.541 163.864 120.521 163.604 120.62C163.34 120.728 163.087 120.903 162.845 121.147C162.599 121.399 162.349 121.682 162.093 121.997C161.845 122.315 161.585 122.628 161.313 122.935C161.037 123.25 160.747 123.515 160.442 123.728C160.133 123.95 159.797 124.086 159.434 124.137C159.07 124.187 158.671 124.109 158.236 123.903C157.817 123.704 157.48 123.403 157.225 123.001C156.978 122.603 156.858 122.11 156.866 121.522C156.877 120.946 157.056 120.294 157.401 119.566Z" fill="#323354"/>
<path d="M161.222 109.764L169.976 112.577L169.574 113.828L160.82 111.015L161.222 109.764Z" fill="#323354"/>
<path d="M163.465 98.397L172.512 100.035L172.278 101.328L164.355 99.8931L163.468 104.792L162.344 104.588L163.465 98.397Z" fill="#323354"/>
<path d="M163.845 83.6162L172.997 87.8723L172.984 89.1726L163.748 93.2568L163.762 91.8777L172.258 88.2458L172.253 88.7711L163.831 84.9691L163.845 83.6162ZM166.126 85.4125L167.173 85.7777L167.121 90.9526L166.066 91.3229L166.126 85.4125Z" fill="#323354"/>
<path d="M163.008 77.193L172.126 76.0068L172.295 77.3094L163.177 78.4955L163.008 77.193Z" fill="#323354"/>
<path d="M160.681 68.4688C160.494 67.7938 160.431 67.1389 160.491 66.5043C160.562 65.8757 160.741 65.2943 161.029 64.7601C161.328 64.2319 161.719 63.7737 162.202 63.3852C162.685 62.9968 163.255 62.7113 163.913 62.5288C164.572 62.3462 165.208 62.297 165.822 62.3811C166.436 62.4652 167.004 62.6621 167.526 62.9716C168.056 63.2788 168.51 63.6847 168.886 64.1892C169.273 64.6998 169.56 65.2926 169.747 65.9676C169.937 66.6511 169.993 67.3125 169.916 67.9519C169.85 68.5973 169.645 69.1857 169.302 69.7171L168.276 69.1156C168.537 68.6798 168.693 68.2275 168.745 67.7588C168.805 67.2877 168.768 66.8117 168.635 66.3307C168.497 65.8329 168.284 65.3922 167.995 65.0087C167.71 64.6336 167.372 64.3321 166.981 64.1041C166.591 63.8762 166.16 63.7321 165.689 63.672C165.229 63.6179 164.754 63.6587 164.265 63.7945C163.775 63.9302 163.343 64.141 162.968 64.4268C162.604 64.7187 162.313 65.0629 162.096 65.4594C161.878 65.8558 161.744 66.2884 161.692 66.7571C161.643 67.2343 161.687 67.7218 161.825 68.2196C161.959 68.7006 162.168 69.1286 162.454 69.5037C162.748 69.8765 163.124 70.1813 163.58 70.4182L163.011 71.4621C162.443 71.1834 161.96 70.7858 161.562 70.2691C161.167 69.7608 160.873 69.1607 160.681 68.4688Z" fill="#323354"/>
<path d="M154.488 53.0428L162.785 49.0811L165.581 54.9365L164.55 55.4289L162.32 50.7588L156.085 53.7357L158.395 58.5718L157.363 59.0642L154.488 53.0428ZM158.713 52.35L159.721 51.8689L161.758 56.136L160.751 56.6171L158.713 52.35Z" fill="#323354"/>
<path d="M147.084 42.2097L154.58 36.8853L156.656 39.8087C157.123 40.4655 157.418 41.0994 157.54 41.7105C157.663 42.3216 157.616 42.8915 157.401 43.4203C157.186 43.949 156.807 44.4061 156.265 44.7915C155.722 45.1769 155.166 45.3841 154.596 45.4131C154.033 45.4371 153.479 45.2931 152.935 44.9812C152.399 44.6643 151.897 44.1774 151.431 43.5206L149.773 41.1861L150.618 41.3105L147.845 43.2806L147.084 42.2097ZM150.511 41.3866L150.704 40.5244L152.34 42.8267C152.826 43.512 153.34 43.9257 153.882 44.0676C154.428 44.2166 154.969 44.101 155.504 43.7207C156.039 43.3403 156.327 42.8678 156.366 42.3029C156.41 41.7452 156.189 41.1236 155.702 40.4383L154.067 38.136L154.944 38.2375L150.511 41.3866Z" fill="#323354"/>
<path d="M140.63 35.5765C140.135 35.081 139.736 34.533 139.432 33.9323C139.135 33.3254 138.977 32.7712 138.959 32.2697L140.027 31.8891C140.058 32.3535 140.194 32.8489 140.436 33.3752C140.677 33.9016 141.005 34.3722 141.42 34.7872C141.797 35.1649 142.147 35.4282 142.469 35.5768C142.791 35.7255 143.082 35.7813 143.342 35.7442C143.608 35.7009 143.838 35.5833 144.03 35.3914C144.253 35.1685 144.358 34.9147 144.345 34.6298C144.339 34.3512 144.259 34.054 144.104 33.7381C143.962 33.4223 143.782 33.0941 143.566 32.7535C143.349 32.4129 143.139 32.06 142.934 31.6946C142.742 31.3292 142.594 30.9639 142.489 30.5985C142.39 30.2394 142.377 29.8803 142.452 29.5211C142.532 29.1558 142.746 28.7998 143.093 28.4532C143.427 28.1189 143.82 27.8991 144.272 27.7939C144.737 27.6888 145.235 27.7353 145.768 27.9335C146.313 28.1318 146.87 28.5158 147.439 29.0856C147.817 29.4633 148.142 29.8875 148.414 30.3582C148.687 30.8288 148.866 31.2932 148.953 31.7515L147.903 32.1878C147.81 31.7234 147.65 31.2961 147.42 30.906C147.198 30.5096 146.941 30.1659 146.65 29.8749C146.285 29.5095 145.938 29.2555 145.61 29.1131C145.282 28.9706 144.984 28.921 144.718 28.9643C144.458 29.0138 144.232 29.1345 144.04 29.3264C143.811 29.5555 143.699 29.8093 143.705 30.0879C143.718 30.3728 143.798 30.67 143.947 30.9796C144.102 31.2954 144.284 31.6267 144.495 31.9735C144.711 32.3141 144.919 32.664 145.117 33.0232C145.321 33.3885 145.473 33.7508 145.572 34.1099C145.677 34.4753 145.692 34.8375 145.618 35.1966C145.543 35.5557 145.336 35.9055 144.995 36.246C144.667 36.5741 144.271 36.7908 143.806 36.896C143.348 36.9949 142.844 36.9422 142.292 36.7378C141.754 36.5333 141.2 36.1462 140.63 35.5765Z" fill="#323354"/>
<path d="M128.723 26.0955L134.082 18.6245L139.354 22.4067L138.688 23.3353L134.483 20.3187L130.456 25.9326L134.811 29.0564L134.144 29.9849L128.723 26.0955ZM132.09 23.4516L132.741 22.5444L136.583 25.3007L135.933 26.2079L132.09 23.4516Z" fill="#323354"/>
<path d="M107.992 17.112L114.969 9.85547L116.946 10.5691L117.69 20.6134L115.59 19.8551L115.184 11.0782L115.975 11.3636L110.043 17.8524L107.992 17.112ZM110.589 15.9547L111.668 14.6268L116.116 16.2325L116.111 17.9484L110.589 15.9547Z" fill="#323354"/>
<path d="M99.7695 15.6863L101.062 8.33836L98.1641 7.82871L98.4644 6.12109L106.356 7.50898L106.055 9.21659L103.158 8.70694L101.865 16.0549L99.7695 15.6863Z" fill="#323354"/>
<path d="M88.0326 15.2878C86.7279 15.2822 85.7093 14.9145 84.9768 14.1845C84.2444 13.4546 83.881 12.4154 83.8868 11.0668L83.9088 5.91797L86.0366 5.92705L86.015 10.9971C86.0112 11.8728 86.1881 12.504 86.5454 12.8908C86.9028 13.2777 87.4055 13.4725 88.0535 13.4752C88.7015 13.478 89.2058 13.2875 89.5665 12.9037C89.9271 12.52 90.1093 11.8903 90.1131 11.0146L90.1347 5.94454L92.2363 5.95351L92.2143 11.1024C92.2086 12.4509 91.8363 13.487 91.0977 14.2107C90.359 14.9343 89.3373 15.2934 88.0326 15.2878Z" fill="#323354"/>
<path d="M71.5117 17.0674L69.9473 8.00696L76.7944 6.82471L77.0849 8.50736L72.3217 9.3298L73.305 15.0249L78.2365 14.1734L78.5271 15.8561L71.5117 17.0674ZM72.7877 12.9549L72.5061 11.324L76.868 10.5709L77.1496 12.2018L72.7877 12.9549Z" fill="#323354"/>
<path d="M58.9727 21.4022L55.8438 12.7565L59.5861 11.4021C60.3601 11.122 61.0733 11.0082 61.7255 11.0608C62.3749 11.1052 62.9368 11.3069 63.4113 11.666C63.8858 12.0251 64.2408 12.5299 64.4762 13.1804C64.7086 13.8226 64.7575 14.4335 64.6227 15.0131C64.4879 15.5927 64.1867 16.1115 63.7192 16.5694C63.2487 17.019 62.6264 17.3839 61.8524 17.664L59.2216 18.6162L59.7846 17.3927L60.9736 20.6781L58.9727 21.4022ZM59.8651 17.615L58.6316 16.9858L61.1512 16.0739C61.7688 15.8504 62.1822 15.5518 62.3915 15.1781C62.6008 14.8043 62.6205 14.3828 62.4506 13.9134C62.2778 13.4359 61.9914 13.1205 61.5913 12.9672C61.1913 12.814 60.6825 12.8491 60.065 13.0726L57.5454 13.9845L58.0905 12.7117L59.8651 17.615Z" fill="#323354"/>
<path d="M45.8997 28.8268L44.791 18.8216L46.6047 17.7598L54.798 23.6174L52.871 24.7455L45.8679 19.4392L46.5934 19.0144L47.7814 27.7252L45.8997 28.8268ZM46.6726 26.0912L46.3438 24.4116L50.4245 22.0226L51.7395 23.1248L46.6726 26.0912Z" fill="#323354"/>
<path d="M36.6451 36.8398L30.6387 29.8783L33.6122 27.3127C34.5802 26.4776 35.5272 26.0537 36.4532 26.0412C37.3735 26.0221 38.174 26.407 38.8547 27.1959C39.3009 27.7131 39.5644 28.2664 39.6451 28.856C39.7202 29.4389 39.6181 30.0243 39.3389 30.6122C39.0596 31.2001 38.6084 31.7629 37.9852 32.3006L35.8669 34.1283L35.9737 32.8044L38.2562 35.4498L36.6451 36.8398ZM41.0706 33.0215L37.1508 31.997L38.8712 30.5126L42.811 31.5199L41.0706 33.0215ZM36.1282 32.9834L34.76 32.8454L36.7888 31.095C37.286 30.6659 37.5658 30.2395 37.628 29.8157C37.6846 29.3852 37.5498 28.9811 37.2238 28.6032C36.892 28.2186 36.5119 28.0261 36.0835 28.0256C35.6552 28.0251 35.1924 28.2394 34.6951 28.6684L32.6664 30.4188L32.7217 29.0353L36.1282 32.9834Z" fill="#323354"/>
<path d="M28.5284 46.4642L21.4121 40.6421L25.812 35.2642L27.1336 36.3454L24.0728 40.0866L28.5459 43.7462L31.7148 39.8729L33.0364 40.9541L28.5284 46.4642ZM26.7992 42.5208L25.5182 41.4728L28.3212 38.0468L29.6021 39.0948L26.7992 42.5208Z" fill="#323354"/>
<path d="M23.4007 55.046L16.9287 51.3345L15.465 53.8868L13.9609 53.0242L17.9469 46.0737L19.451 46.9363L17.9873 49.4886L24.4592 53.2002L23.4007 55.046Z" fill="#323354"/>
<path d="M18.9874 66.35C18.7443 67.035 18.4074 67.6309 17.9766 68.1377C17.5488 68.6363 17.0565 69.0284 16.4999 69.314C15.9461 69.5914 15.3545 69.7531 14.7249 69.7991C14.0982 69.8368 13.4631 69.7415 12.8194 69.5131C12.1757 69.2846 11.6225 68.9582 11.1599 68.5338C10.7001 68.1012 10.3443 67.5986 10.0922 67.026C9.84012 66.4533 9.70519 65.8386 9.68739 65.1819C9.66959 64.5251 9.78078 63.8584 10.0209 63.1817C10.264 62.4968 10.598 61.9091 11.0229 61.4188C11.4508 60.9202 11.9415 60.5322 12.4953 60.2549C13.0519 59.9693 13.6451 59.8035 14.2747 59.7574C14.896 59.7085 15.5326 59.7997 16.1846 60.0311C16.8283 60.2595 17.3841 60.5915 17.8521 61.0271C18.3118 61.4597 18.6677 61.9623 18.9197 62.535C19.1665 63.0964 19.2988 63.7055 19.3166 64.3623C19.3373 65.0108 19.2276 65.6734 18.9874 66.35ZM17.2748 65.7562C17.4124 65.3683 17.4723 64.99 17.4545 64.6213C17.4396 64.2444 17.3523 63.8882 17.1926 63.5527C17.0329 63.2173 16.8073 62.9235 16.5158 62.6714C16.2273 62.411 15.8767 62.2076 15.4641 62.0612C15.0515 61.9147 14.6511 61.8516 14.263 61.8718C13.8777 61.8838 13.5174 61.9696 13.182 62.1293C12.8495 62.2808 12.5586 62.4981 12.3094 62.7814C12.0603 63.0646 11.8668 63.4001 11.7292 63.788C11.5915 64.1759 11.5301 64.5583 11.545 64.9352C11.5628 65.3039 11.6516 65.656 11.8113 65.9914C11.971 66.3269 12.1951 66.6248 12.4837 66.8851C12.7752 67.1373 13.1272 67.3365 13.5399 67.483C13.9442 67.6265 14.3431 67.6937 14.7366 67.6847C15.1247 67.6645 15.4851 67.5787 15.8176 67.4272C16.153 67.2675 16.4453 67.046 16.6945 66.7628C16.9437 66.4796 17.1371 66.144 17.2748 65.7562Z" fill="#323354"/>
<path d="M15.6824 78.4359L6.64648 76.7357L7.03996 74.6445L16.0759 76.3447L15.6824 78.4359Z" fill="#323354"/>
<path d="M15.216 87.5641C15.1775 88.2986 15.0444 88.9975 14.8168 89.6608C14.5804 90.3236 14.294 90.8522 13.9576 91.2467L12.3952 90.4415C12.6956 90.0626 12.9516 89.6113 13.1632 89.0875C13.3665 88.5545 13.4826 88.0125 13.5114 87.4616C13.5334 87.0419 13.5117 86.7031 13.4463 86.4454C13.3726 86.1785 13.2646 85.9799 13.1224 85.8497C12.9801 85.7195 12.8128 85.6494 12.6204 85.6393C12.3756 85.6264 12.1782 85.7126 12.0282 85.8976C11.8694 86.0822 11.7381 86.3296 11.6341 86.6398C11.5215 86.9496 11.4157 87.2948 11.3168 87.6755C11.2097 88.0469 11.0848 88.4218 10.9422 88.8002C10.8001 89.1698 10.6246 89.5069 10.4157 89.8117C10.2069 90.1164 9.93975 90.3611 9.61441 90.5457C9.28952 90.7216 8.88223 90.7967 8.39252 90.7711C7.86784 90.7436 7.39859 90.5787 6.98476 90.2764C6.56264 89.9649 6.23967 89.5183 6.01586 88.9367C5.78375 88.3458 5.69038 87.6175 5.73573 86.7517C5.76597 86.1746 5.8657 85.6098 6.03493 85.0575C6.19542 84.5047 6.42244 84.0212 6.71597 83.6069L8.29501 84.3473C8.02771 84.7629 7.82599 85.182 7.68986 85.6046C7.54499 86.0266 7.46179 86.4432 7.44026 86.8542C7.41872 87.2652 7.44918 87.6044 7.53163 87.8718C7.61408 88.1391 7.73103 88.3338 7.88248 88.4557C8.02518 88.5772 8.1971 88.6432 8.39822 88.6537C8.63433 88.6661 8.83175 88.58 8.99049 88.3954C9.14048 88.2103 9.26745 87.9627 9.37139 87.6525C9.47533 87.3422 9.58087 87.0014 9.68802 86.63C9.79562 86.2498 9.91611 85.8747 10.0495 85.5046C10.1833 85.1258 10.3547 84.784 10.5636 84.4793C10.7724 84.1745 11.0393 83.9342 11.3642 83.7583C11.6896 83.5737 12.0927 83.494 12.5737 83.5192C13.0896 83.5462 13.5543 83.7152 13.9676 84.0263C14.381 84.3373 14.7037 84.7882 14.9358 85.3791C15.1684 85.9613 15.2618 86.6896 15.216 87.5641Z" fill="#323354"/>
<path d="M15.4276 98.6615L6.26503 99.4269L6.08789 97.3064L15.2505 96.541L15.4276 98.6615Z" fill="#323354"/>
<path d="M17.9202 110.578L8.94368 112.569L7.43945 105.785L9.10651 105.416L10.1501 110.122L17.4595 108.501L17.9202 110.578ZM14.2236 109.38L12.5566 109.75L11.6011 105.441L13.2682 105.071L14.2236 109.38Z" fill="#323354"/>
</svg>
