<svg width="101" height="101" viewBox="0 0 101 101" fill="none" xmlns="http://www.w3.org/2000/svg">
<path d="M99.9799 31.2919C99.5766 21.9545 91.9358 14.373 82.575 14.0137C72.2318 13.6171 63.7209 21.8625 63.7209 32.0938C63.7209 32.8036 63.7641 33.5049 63.8448 34.1946C64.009 35.6029 64.1128 37.0169 64.0523 38.4337C63.7152 46.1934 60.5488 58.8158 44.256 62.9945C43.9737 63.0606 43.6971 63.1382 43.4263 63.2273C27.6406 68.0441 17.7871 55.6286 15.3468 52.0678C15.1711 51.8149 15.0184 51.5505 14.8628 51.2832C13.3502 48.7196 10.3394 47.1418 7.02899 47.7511C4.11905 48.2856 1.77382 50.5532 1.16878 53.4415C0.160387 58.2439 3.8079 62.4744 8.44651 62.4744C8.89309 62.4744 9.33101 62.4341 9.75454 62.3594C11.2931 62.0864 12.8374 61.8478 14.3989 61.8335C26.491 61.7185 32.7027 68.0699 35.6415 72.1682C36.3906 73.2114 36.9322 74.3811 37.3615 75.5911C38.6897 79.3272 42.2623 82 46.4601 82C51.6144 82 55.8209 77.9707 56.0975 72.9011C56.1032 72.8062 56.1119 72.7114 56.1263 72.6194C56.8322 68.113 60.9061 51.2027 82.4454 50.1911C82.4454 50.1911 82.3647 50.1911 82.2206 50.1824C92.3363 49.9841 100.424 41.5318 99.9828 31.2948L99.9799 31.2919Z" fill="url(#paint0_linear_9_821)"/>
<defs>
<linearGradient id="paint0_linear_9_821" x1="0.993033" y1="48.0011" x2="99.9972" y2="48.0011" gradientUnits="userSpaceOnUse">
<stop offset="0.04" stop-color="#7F1E25"/>
<stop offset="0.21" stop-color="#821E25"/>
<stop offset="0.35" stop-color="#8C1E28"/>
<stop offset="0.49" stop-color="#9D1F2D"/>
<stop offset="0.55" stop-color="#A92030"/>
<stop offset="0.73" stop-color="#AA1F2F"/>
<stop offset="0.8" stop-color="#B11E2F"/>
<stop offset="0.85" stop-color="#BD1D2E"/>
<stop offset="0.92" stop-color="#BE1D2E"/>
<stop offset="0.95" stop-color="#C71E30"/>
</linearGradient>
</defs>
</svg>
